<svg width="28" height="26" viewBox="0 0 28 26" fill="none" xmlns="http://www.w3.org/2000/svg">
<path fill-rule="evenodd" clip-rule="evenodd" d="M24 18V17V6C24 4.89543 23.1046 4 22 4L4 4H3C1.89543 4 1 4.89543 1 6V18C1 19.1046 1.89543 20 3 20H5H6V21V24L10 21L11.5 20H13H22C23.1046 20 24 19.1046 24 18ZM3 21H5V24.75V26L6 25.25L11.6667 21H22C23.6569 21 25 19.6569 25 18C26.6569 18 28 16.6569 28 15V3C28 1.34315 26.6569 0 25 0H6C4.34315 0 3 1.34315 3 3C1.34315 3 0 4.34315 0 6V18C0 19.6569 1.34315 21 3 21ZM26 16.7324C26.5978 16.3866 27 15.7403 27 15V3C27 1.89543 26.1046 1 25 1H6C5.25972 1 4.61337 1.4022 4.26756 2C4.09739 2.29417 4 2.63571 4 3H5L22 3C23.6569 3 25 4.34315 25 6V16V17C25.3643 17 25.7058 16.9026 26 16.7324Z" fill="white"/>
</svg>
