<svg id="Слой_1" data-name="Слой 1" xmlns="http://www.w3.org/2000/svg" viewBox="0 0 1500 1500">
  <defs>
    <style>
      .cls-1 {
        fill: #fff;
      }
    </style>
  </defs>
  <title>R-online</title>
  <g id="_2" data-name="2">
    <path class="cls-1" d="M458.31,715.05H818.89c70.26,0,127.41-51.9,127.41-121.84S889.15,472.38,818.89,472.38H458.31a13.91,13.91,0,0,0,0,27.83H818.89c55,0,99.67,38.42,99.67,93s-44.71,94-99.67,94H458.31a13.91,13.91,0,0,0,0,27.83Z"/>
    <path class="cls-1" d="M458.31,825.28H818.89c134.14,0,243.27-95.59,243.27-229.07S953,362.15,818.89,362.15H458.31a13.91,13.91,0,0,0,0,27.83H818.89c118.84,0,215.53,88.11,215.53,206.24,0,117.9-96.68,201-215.52,201.24H458.31a13.91,13.91,0,0,0,0,27.83Z"/>
    <path class="cls-1" d="M458.31,607.63H697.92a13.91,13.91,0,0,0,0-27.83H458.31a13.91,13.91,0,0,0,0,27.83Z"/>
    <path class="cls-1" d="M458.31,928.56h504a13.91,13.91,0,0,0,0-27.83h-504a13.91,13.91,0,0,0,0,27.83Z"/>
    <path class="cls-1" d="M458.31,1036.19h591a13.91,13.91,0,0,0,0-27.83h-591a13.91,13.91,0,0,0,0,27.83Z"/>
    <g>
      <path class="cls-1" d="M473.85,1080.6c-20,0-30.42,14.4-30.42,28.63s10.45,28.63,30.42,28.63,30.41-14.4,30.41-28.63S493.82,1080.6,473.85,1080.6Zm17.31,28.63c0,8.7-4.53,18.86-17.31,18.86s-17.31-10.16-17.31-18.86,4.53-18.86,17.31-18.86S491.16,1100.52,491.16,1109.23Z"/>
      <path class="cls-1" d="M605.75,1080.6c-7,0-13.15,2.11-17.69,6v-.2a6.55,6.55,0,0,0-13.11,0v45.67c0,3.52,2.57,5.8,6.55,5.8s6.55-2.27,6.55-5.8v-29.43c0-8.47,7.24-12.27,14.42-12.27s14.42,3.79,14.42,12.27v29.43c0,3.52,2.57,5.8,6.55,5.8s6.55-2.27,6.55-5.8v-29.94C630,1087.25,617.82,1080.6,605.75,1080.6Z"/>
      <path class="cls-1" d="M710.29,1061.33a6.62,6.62,0,0,0-6.55,6.79v63.93c0,3.52,2.57,5.8,6.55,5.8s6.55-2.27,6.55-5.8v-63.93A6.62,6.62,0,0,0,710.29,1061.33Z"/>
      <ellipse class="cls-1" cx="797.24" cy="1068.69" rx="7.81" ry="7.67"/>
      <path class="cls-1" d="M797.24,1081.73a6.47,6.47,0,0,0-6.55,6.68v43.64c0,3.52,2.57,5.8,6.55,5.8s6.55-2.27,6.55-5.8v-43.64A6.47,6.47,0,0,0,797.24,1081.73Z"/>
      <path class="cls-1" d="M908.43,1080.6c-7,0-13.15,2.11-17.68,6v-.19a6.55,6.55,0,1,0-13.11,0v45.67c0,3.52,2.57,5.8,6.55,5.8s6.55-2.27,6.55-5.8v-29.43c0-8.47,7.24-12.27,14.42-12.27s14.42,3.79,14.42,12.27v29.43c0,3.52,2.57,5.8,6.55,5.8s6.55-2.27,6.55-5.8v-29.94C932.69,1087.25,920.51,1080.6,908.43,1080.6Z"/>
      <path class="cls-1" d="M1063.19,1107.91c0-13.42-11.14-27.31-29.79-27.31-20.38,0-31,14.4-31,28.63,0,13.21,8.29,28.63,31.67,28.63,12.72,0,27.78-6.55,27.78-12.09a4.91,4.91,0,0,0-5-5c-1.73,0-3.26,1-5.2,2.19-3.42,2.16-8.11,5.12-17.41,5.12-10.76,0-18.12-5.74-18.66-14.39H1056C1061,1113.7,1063.19,1111.92,1063.19,1107.91Zm-47.64-3c.47-4.52,3.13-14.59,17.38-14.59h.46c10.94.18,16.2,7.5,16.67,14.59Z"/>
    </g>
  </g>
</svg>
